<svg version="1.1" xmlns="http://www.w3.org/2000/svg" xmlns:xlink="http://www.w3.org/1999/xlink" width="85.85233" height="89.70016" viewBox="0,0,85.85233,89.70016"><g transform="translate(-197.31477,-131.34378)"><g data-paper-data="{&quot;isPaintingLayer&quot;:true}" fill-rule="evenodd" stroke-miterlimit="10" stroke-dasharray="" stroke-dashoffset="0" style="mix-blend-mode: normal"><g><path d="M231.29929,200.77815c0.44639,0.77508 1.36736,2.46381 -2.51045,3.97462c-3.87781,1.51082 -10.01819,-1.71342 -10.68533,-2.15492c-2.64035,-1.62744 -5.80926,-3.7246 -8.53909,-7.20999c-7.96632,-10.06865 -0.82007,-21.04821 3.59117,-20.64711c4.32786,0.34592 1.27528,8.03888 3.15764,15.16045c0.78728,3.15914 2.76414,5.42674 4.48962,7.16822c2.5042,2.37676 10.02186,2.79508 10.49645,3.70873z" fill="#ffe119" stroke="#000000" stroke-width="1.2" stroke-linecap="round" stroke-linejoin="round"/><path d="M215.08827,180.33672c-0.15581,3.1346 0.3322,8.01434 0.3322,8.01434c0,0 -2.58882,-2.79249 -5.27826,-2.53377c-2.13512,0.14591 -3.01568,2.20127 -3.23522,2.8954c-0.36665,-1.80155 -0.70755,-4.18562 0.39012,-7.65622c1.09766,-3.47061 4.24949,-6.42121 6.24846,-5.8178c1.8886,0.77019 1.47774,2.29702 1.54269,5.09805z" fill="#ffffff" stroke="none" stroke-width="1" stroke-linecap="butt" stroke-linejoin="miter"/></g><path d="M226.70428,200.56699c2.13929,-0.40319 5.7035,0.4292 5.40153,4.799c-0.29046,5.10947 -6.41937,5.87064 -9.00245,6.28075c-2.58309,0.41011 -3.9873,0.50591 -8.771,2.13399c-1.91393,0.62164 -4.11685,1.69168 -5.29112,2.30182c-0.4392,0.30276 -0.80328,0.67836 -1.01714,1.19958c-0.35487,0.96731 -1.06694,2.75402 -3.50209,3.16181c-5.83764,0.4607 -9.22032,-17.24304 -4.08406,-19.98636c5.28189,-2.89356 6.63022,2.93028 7.19514,5.95487c0.15483,0.44151 0.67606,0.65537 1.04244,0.42771l0.36638,-0.22765c7.63044,-4.11385 15.45023,-5.56719 17.66233,-6.0455z" data-paper-data="{&quot;index&quot;:null}" fill="#ffe119" stroke="#000000" stroke-width="1.2" stroke-linecap="round" stroke-linejoin="round"/><path d="M243.12281,201.06036c2.25331,0.21166 10.19048,0.72409 18.25625,3.90067l0.39087,0.18244c0.39087,0.18244 0.88294,-0.09193 0.98413,-0.54873c0.20097,-3.07032 0.84667,-9.01322 6.43537,-6.76879c5.42622,2.11261 4.17438,20.09309 -1.6766,20.33035c-2.46638,-0.11511 -3.386,-1.80438 -3.85347,-2.72259c-0.27436,-0.49207 -0.68055,-0.82167 -1.15266,-1.07002c-1.23853,-0.46607 -3.55313,-1.26635 -5.52744,-1.65581c-4.94345,-1.04725 -6.34909,-0.97527 -8.96262,-1.07506c-2.61353,-0.0998 -8.78947,-0.12621 -9.6859,-5.1648c-0.81983,-4.30281 2.61999,-5.55344 4.79206,-5.40769z" data-paper-data="{&quot;index&quot;:null}" fill="#ffe119" stroke="#000000" stroke-width="1.2" stroke-linecap="round" stroke-linejoin="round"/><path d="M233.61736,189.34222c0.73683,2.49341 -0.51191,5.67785 -1.20929,7.55233c-0.69737,1.87448 -4.39576,9.11961 -11.89141,8.10212c-3.2062,-0.61666 -11.31444,-4.05999 -8.79723,-8.24493c2.51721,-4.18493 6.84384,-1.18822 9.74058,0.14554c2.42812,1.15942 6.2376,-7.47412 6.60374,-7.99941c1.20521,-1.92028 4.6642,-2.21252 5.55361,0.44435z" data-paper-data="{&quot;index&quot;:null}" fill="#ffe119" stroke="#000000" stroke-width="1.2" stroke-linecap="round" stroke-linejoin="round"/><path d="M248.86994,189.22018c0.25637,0.58675 2.30434,9.79847 4.91228,9.13617c3.1016,-0.74166 7.93064,-2.83461 9.58104,1.76171c1.65041,4.59632 -6.97457,6.38791 -10.23946,6.36581c-7.54992,-0.46767 -9.76039,-8.29607 -10.07782,-10.27072c-0.31742,-1.97465 -0.91946,-5.34178 0.29065,-7.643c1.3917,-2.4317 4.72679,-1.46881 5.5333,0.65004z" fill="#ffe119" stroke="#000000" stroke-width="1.2" stroke-linecap="round" stroke-linejoin="round"/><path d="M230.97414,207.06234c-10.11639,-6.22887 -4.15436,-11.1598 -2.57535,-16.43586c1.53775,-4.54922 2.78668,-4.01055 8.90371,-4.1586c3.42675,-0.2595 5.44379,-0.40641 7.56802,-0.98749c3.19733,-0.82285 3.66698,3.99165 3.33845,6.62833c0,0 -0.55255,3.91723 -1.40317,6.05649c-1.05537,2.59542 -1.89635,4.32249 -2.8692,5.46422c0,0 -0.71974,3.45106 -5.10535,4.11097c-3.0567,0.45995 -7.85711,-0.67806 -7.85711,-0.67806z" fill="#ffe119" stroke="#000000" stroke-width="1.2" stroke-linecap="round" stroke-linejoin="round"/><path d="M237.59907,201.78313c-5.85437,-0.88229 -6.93667,-4.76834 -4.93667,-7.86834c1.8,-2.4 4.96833,-5.96708 9.46833,-3.06708c4.3,2.7 3.50125,7.4025 3.50125,7.4025c-2.2,4.5 -2.21147,3.1975 -8.03292,3.53292z" fill="#ffffff" stroke="none" stroke-width="1" stroke-linecap="butt" stroke-linejoin="miter"/><path d="M253.58855,131.84301c0.3,-0.2 0.8,-0.1 0.9,0.3l2.6,10.7c0,0 6.4,4.7 8.3,8c3.2,5.5 3.3,10 3.3,10c0,0 4.47998,4.36517 4.26209,10.18604c-0.26833,7.16833 0.83791,14.11396 -17.96209,17.81396c-18.8,3.7 -41.00894,-3.61085 -41.73417,-17.02145c-0.67605,-12.50125 4.83417,-20.77855 4.23417,-19.97855l-2.1,-17.9c-0.1,-0.4 0.4,-0.7 0.8,-0.5l12.1,7.9c0,0 4.5,-1.7 9.2,-1.9c2.8,-0.2 5.2,0 7.5,0.4z" fill="#ffe119" stroke="#000000" stroke-width="1.2" stroke-linecap="butt" stroke-linejoin="miter"/><path d="M263.80001,161.42655c0,0 7.42745,1.71401 8.1,7.5c1.48183,12.74823 -2.67783,15.24998 -16.45757,19.09459c-2.41146,0.67281 -5.41431,0.27712 -8.49556,0.68895c-21.9975,1.14563 -34.96583,-9.03292 -33.22145,-21.10125c0.82667,-12.16833 25.17457,-0.6823 33.57457,-1.2823c7.2,-0.5 8,-6.8 16.5,-4.9z" fill="#ffffff" stroke="none" stroke-width="1" stroke-linecap="butt" stroke-linejoin="miter"/><path d="M257.9336,187.46855c0,0.56888 -0.4,0.99554 -0.8,0.85332c-1.9,-0.99554 -6.01521,-3.79312 -12.01521,-4.362c-5.4,-0.42666 -10.25187,0.78309 -11.75187,1.20975c-0.5,0.14222 -2.18479,0.73628 -1.98479,0.02518c0.9,-3.83994 3.04812,-15.0285 14.09875,-15.2193c9.1,1.4222 12.75312,10.52427 12.45312,17.49305z" data-paper-data="{&quot;index&quot;:null}" fill="#ffffff" stroke="#000000" stroke-width="1.2" stroke-linecap="round" stroke-linejoin="round"/><path d="M282.5671,163.99488c-4.7,3.8 -11.9,3.9 -11.9,3.9" fill="none" stroke="#000000" stroke-width="1.2" stroke-linecap="round" stroke-linejoin="round"/><path d="M281.08356,173.72655c-6.3,0.5 -10.2,-1.4 -10.2,-1.4" fill="none" stroke="#000000" stroke-width="1.2" stroke-linecap="round" stroke-linejoin="round"/><path d="M245.06461,165.37843c2.1,0 4.3,0.2 4.4,0.9c0.1,1.4 -2.86833,4.38354 -4.46833,4.48354c-1.8,0.2 -4.53167,-2.48354 -4.53167,-4.08354c-0.1,-1.2 2.6,-1.3 4.6,-1.3z" fill="#000000" stroke="#000000" stroke-width="1.2" stroke-linecap="round" stroke-linejoin="round"/><path d="M206.48855,162.04301c0,0 8.6,2.8 12.1,5.9" fill="none" stroke="#000000" stroke-width="1.2" stroke-linecap="round" stroke-linejoin="round"/><path d="M218.88855,171.44301c-4.3,1.7 -11.7,0.6 -11.7,0.6" fill="none" stroke="#000000" stroke-width="1.2" stroke-linecap="round" stroke-linejoin="round"/><path d="M243.19406,157.61174c0.31387,6.76073 -1.57383,12.45935 -8.97342,12.07478c-6.06228,0.0821 -10.95624,-4.73132 -11.03677,-10.32532c0.02569,-6.52738 -0.69528,-8.87386 3.24594,-11.67086c3.94123,-2.92414 16.45026,3.15816 16.76425,9.9214z" fill="#ffffff" stroke="#000000" stroke-width="1.2" stroke-linecap="round" stroke-linejoin="round"/><path d="M262.46806,147.33537c3.88514,2.7572 3.17444,5.07028 3.19976,11.50479c-0.07938,5.5144 -4.9037,10.25933 -10.87972,10.17839c-7.2943,0.3791 -9.15514,-5.23843 -8.84574,-11.90296c0.30952,-6.66701 12.64054,-12.66275 16.52569,-9.78021z" data-paper-data="{&quot;index&quot;:null}" fill="#ffffff" stroke="#000000" stroke-width="1.2" stroke-linecap="round" stroke-linejoin="round"/><path d="M251.13011,161.27626c0,0.70714 -0.51429,1.28571 -1.15714,1.28571c-0.64286,0 -1.15714,-0.57857 -1.15714,-1.28571c0,-0.70714 0.51429,-1.28571 1.15714,-1.28571c0.64286,0 1.15714,0.57857 1.15714,1.28571" fill="#001026" stroke="none" stroke-width="1" stroke-linecap="butt" stroke-linejoin="miter"/><path d="M239.98726,162.41911c0,0.70714 -0.51429,1.28572 -1.15714,1.28572c-0.64285,0 -1.15714,-0.57857 -1.15714,-1.28572c0,-0.70714 0.51429,-1.28571 1.15714,-1.28571c0.64285,0 1.15714,0.57857 1.15714,1.28571" fill="#001026" stroke="none" stroke-width="1" stroke-linecap="butt" stroke-linejoin="miter"/></g></g></svg>