<svg version="1.1" xmlns="http://www.w3.org/2000/svg" xmlns:xlink="http://www.w3.org/1999/xlink" width="86.33421" height="103.08568" viewBox="0,0,86.33421,103.08568"><g transform="translate(-196.83289,-131.34378)"><g data-paper-data="{&quot;isPaintingLayer&quot;:true}" fill-rule="evenodd" stroke-miterlimit="10" stroke-dasharray="" stroke-dashoffset="0" style="mix-blend-mode: normal"><g><path d="M227.82205,194.77535c0.87122,-0.20245 2.75445,-0.59416 3.07587,3.55514c0.32143,4.1493 -4.54485,9.09089 -5.16084,9.60134c-2.32316,2.05498 -5.24912,4.4796 -9.37635,6.08146c-11.94609,4.70435 -20.38164,-5.31868 -18.71861,-9.42408c1.58604,-4.0416 8.06328,1.11061 15.4247,1.37423c3.2517,0.16263 5.99511,-1.07174 8.16212,-2.21809c3.0008,-1.7074 5.5811,-8.78074 6.59312,-8.97z" fill="#000000" stroke="#ffe119" stroke-width="1.2" stroke-linecap="round" stroke-linejoin="round"/><path d="M203.55808,204.36228c2.95474,1.05808 7.76632,2.00605 7.76632,2.00605c0,0 -3.42321,1.66783 -3.95548,4.31673c-0.4795,2.08569 1.23221,3.52443 1.83285,3.93581c-1.83046,-0.17151 -4.21095,-0.53659 -7.21413,-2.59349c-3.00319,-2.0569 -4.91305,-5.92891 -3.75591,-7.66702c1.28475,-1.58411 2.62684,-0.74816 5.32635,0.00192z" fill="#ffffff" stroke="none" stroke-width="1" stroke-linecap="butt" stroke-linejoin="miter"/></g><path d="M226.70352,203.57595c1.40562,-1.66233 4.69631,-3.26478 7.21851,0.3164c2.99772,4.14786 -1.27779,8.60465 -3.0234,10.5523c-1.74562,1.94765 -2.77477,2.90778 -5.45962,7.18867c-1.09296,1.68968 -2.1273,3.90958 -2.65358,5.12375c-0.14981,0.51198 -0.19538,1.03308 -0.03253,1.57242c0.33483,0.97443 0.90938,2.80999 -0.72291,4.66252c-4.23904,4.03991 -18.03145,-7.56329 -15.77654,-12.93194c2.27314,-5.57708 6.99309,-1.90868 9.33937,0.08186c0.39865,0.24492 0.93799,0.08206 1.07867,-0.3257l0.14068,-0.40776c3.3257,-8.00544 8.4766,-14.06593 9.89134,-15.83248z" data-paper-data="{&quot;index&quot;:null}" fill="#000000" stroke="#ffe119" stroke-width="1.2" stroke-linecap="round" stroke-linejoin="round"/><path d="M244.57521,202.13612c1.28021,1.86635 5.96876,8.2912 8.69326,16.52069l0.11014,0.41705c0.11014,0.41705 0.63596,0.61935 1.05163,0.40459c2.48707,-1.81155 7.46541,-5.12081 9.31984,0.60912c1.85166,5.52072 -12.76116,16.07204 -16.68979,11.72967c-1.4908,-1.96819 -0.78206,-3.75622 -0.37608,-4.70322c0.2023,-0.52582 0.19539,-1.04886 0.08386,-1.57052c-0.43503,-1.24977 -1.30235,-3.54009 -2.26735,-5.30598c-2.36087,-4.46774 -3.31619,-5.50136 -4.91298,-7.57278c-1.59678,-2.07142 -5.53095,-6.83223 -2.23466,-10.74701c2.78016,-3.38482 5.94332,-1.54338 7.22214,0.21836z" data-paper-data="{&quot;index&quot;:null}" fill="#000000" stroke="#ffe119" stroke-width="1.2" stroke-linecap="round" stroke-linejoin="round"/><path d="M230.16034,188.42501c0,2.6 -2.1,5.3 -3.3,6.9c-1.2,1.6 -6.8,7.5 -13.7,4.4c-2.9,-1.5 -9.7,-7.1 -6.1,-10.4c3.6,-3.3 6.9,0.8 9.3,2.9c2,1.8 8.1,-5.4 8.6,-5.8c1.7,-1.5 5.1,-0.8 5.2,2z" data-paper-data="{&quot;index&quot;:null}" fill="#000000" stroke="#ffe119" stroke-width="1.2" stroke-linecap="round" stroke-linejoin="round"/><path d="M247.53074,189.50083c0.5,0.4 6.6,7.6 8.6,5.8c2.4,-2.1 5.7,-6.2 9.3,-2.9c3.6,3.3 -3.2,8.9 -6.1,10.4c-6.9,3.1 -12.5,-2.8 -13.7,-4.4c-1.2,-1.6 -3.3,-4.3 -3.3,-6.9c0.1,-2.8 3.5,-3.5 5.2,-2z" fill="#000000" stroke="#ffe119" stroke-width="1.2" stroke-linecap="round" stroke-linejoin="round"/><path d="M230.97414,207.06234c-10.11639,-6.22887 -4.15436,-11.1598 -2.57535,-16.43586c1.53775,-4.54922 2.78668,-4.01055 8.90371,-4.1586c3.42675,-0.2595 5.44379,-0.40641 7.56802,-0.98749c3.19733,-0.82285 3.66698,3.99165 3.33845,6.62833c0,0 -0.55255,3.91723 -1.40317,6.05649c-1.05537,2.59542 -1.89635,4.32249 -2.8692,5.46422c0,0 -0.71974,3.45106 -5.10535,4.11097c-3.0567,0.45995 -7.85711,-0.67806 -7.85711,-0.67806z" fill="#000000" stroke="#ffe119" stroke-width="1.2" stroke-linecap="round" stroke-linejoin="round"/><path d="M237.59907,201.78313c-5.85437,-0.88229 -6.93667,-4.76834 -4.93667,-7.86834c1.8,-2.4 4.96833,-5.96708 9.46833,-3.06708c4.3,2.7 3.50125,7.4025 3.50125,7.4025c-2.2,4.5 -2.21147,3.1975 -8.03292,3.53292z" fill="#ffffff" stroke="none" stroke-width="1" stroke-linecap="butt" stroke-linejoin="miter"/><g><path d="M253.58855,131.84301c0.3,-0.2 0.8,-0.1 0.9,0.3l2.6,10.7c0,0 6.4,4.7 8.3,8c3.2,5.5 3.3,10 3.3,10c0,0 4.47998,4.36517 4.26209,10.18604c-0.26833,7.16833 0.83791,14.11396 -17.96209,17.81396c-18.8,3.7 -41.00894,-3.61085 -41.73417,-17.02145c-0.67605,-12.50125 4.83417,-20.77855 4.23417,-19.97855l-2.1,-17.9c-0.1,-0.4 0.4,-0.7 0.8,-0.5l12.1,7.9c0,0 4.5,-1.7 9.2,-1.9c2.8,-0.2 5.2,0 7.5,0.4z" fill="#000000" stroke="#ffe119" stroke-width="1.2" stroke-linecap="butt" stroke-linejoin="miter"/><path d="M263.80002,161.42655c0,0 7.42745,1.71401 8.1,7.5c1.48183,12.74823 -2.67783,15.24998 -16.45757,19.09459c-2.41146,0.67281 -5.41431,0.27712 -8.49556,0.68895c-21.9975,1.14563 -34.96583,-9.03292 -33.22145,-21.10125c0.82667,-12.16833 25.17457,-0.6823 33.57457,-1.2823c7.2,-0.5 8,-6.8 16.5,-4.9z" fill="#ffffff" stroke="none" stroke-width="1" stroke-linecap="butt" stroke-linejoin="miter"/><path d="M257.9336,185.2755c0,0.4 -0.4,0.7 -0.8,0.6c-1.9,-0.7 -6.01521,-2.66708 -12.01521,-3.06708c-5.4,-0.3 -10.25187,0.55062 -11.75187,0.85062c-0.5,0.1 -2.18479,0.51771 -1.98479,0.01771c0.9,-2.7 3.04812,-10.56709 14.09875,-10.70125c9.1,1 12.75312,7.4 12.45312,12.3z" data-paper-data="{&quot;index&quot;:null}" fill="#ffffff" stroke="#ffe119" stroke-width="1.2" stroke-linecap="round" stroke-linejoin="round"/><path d="M282.5671,163.99488c-4.7,3.8 -11.9,3.9 -11.9,3.9" fill="none" stroke="#ffe119" stroke-width="1.2" stroke-linecap="round" stroke-linejoin="round"/><path d="M281.08356,173.72655c-6.3,0.5 -10.2,-1.4 -10.2,-1.4" fill="none" stroke="#ffe119" stroke-width="1.2" stroke-linecap="round" stroke-linejoin="round"/><path d="M245.06461,165.37843c2.1,0 4.3,0.2 4.4,0.9c0.1,1.4 -2.86833,4.38354 -4.46833,4.48354c-1.8,0.2 -4.53167,-2.48354 -4.53167,-4.08354c-0.1,-1.2 2.6,-1.3 4.6,-1.3z" fill="#ffe119" stroke="#ffe119" stroke-width="1.2" stroke-linecap="round" stroke-linejoin="round"/><path d="M206.48855,162.04301c0,0 8.6,2.8 12.1,5.9" fill="none" stroke="#ffe119" stroke-width="1.2" stroke-linecap="round" stroke-linejoin="round"/><path d="M218.88855,171.44301c-4.3,1.7 -11.7,0.6 -11.7,0.6" fill="none" stroke="#ffe119" stroke-width="1.2" stroke-linecap="round" stroke-linejoin="round"/><path d="M241.05813,157.76322c0.24688,5.3177 -1.23791,9.79999 -7.05811,9.4975c-4.76833,0.06458 -8.61771,-3.72145 -8.68105,-8.12145c0.02021,-5.13416 -0.54688,-6.9798 2.55312,-9.1798c3.1,-2.3 12.93907,2.48407 13.18604,7.80375z" fill="#ffffff" stroke="#ffe119" stroke-width="1.2" stroke-linecap="round" stroke-linejoin="round"/><path d="M237.52147,159.70885c0,1.1 -0.8,2 -1.8,2c-1,0 -1.8,-0.9 -1.8,-2c0,-1.1 0.8,-2 1.8,-2c1,0.1 1.8,0.9 1.8,2" fill="#ffe119" stroke="none" stroke-width="1" stroke-linecap="butt" stroke-linejoin="miter"/><path d="M261.12193,149.45323c3.1,2.2 2.53292,4.04563 2.55312,9.1798c-0.06334,4.4 -3.91272,8.18603 -8.68105,8.12145c-5.8202,0.30249 -7.30499,-4.1798 -7.05811,-9.4975c0.24697,-5.31968 10.08603,-10.10375 13.18603,-7.80374z" data-paper-data="{&quot;index&quot;:null}" fill="#ffffff" stroke="#ffe119" stroke-width="1.2" stroke-linecap="round" stroke-linejoin="round"/><path d="M253.3444,159.56197c0,1.1 -0.8,2 -1.8,2c-1,0 -1.8,-0.9 -1.8,-2c0,-1.1 0.8,-2 1.8,-2c1,0 1.8,0.9 1.8,2" fill="#ffe119" stroke="none" stroke-width="1" stroke-linecap="butt" stroke-linejoin="miter"/></g></g></g></svg>