<svg version="1.1" xmlns="http://www.w3.org/2000/svg" xmlns:xlink="http://www.w3.org/1999/xlink" width="92.40904" height="108.95033" viewBox="0,0,92.40904,108.95033"><g transform="translate(-189.46195,-128.3002)"><g data-paper-data="{&quot;isPaintingLayer&quot;:true}" fill-rule="evenodd" stroke-miterlimit="10" stroke-dasharray="" stroke-dashoffset="0" style="mix-blend-mode: normal"><path d="M240.07521,205.13611c1.28021,1.86635 5.96876,8.2912 8.69326,16.52069l0.11014,0.41705c0.11014,0.41705 0.63596,0.61935 1.05163,0.40459c2.48707,-1.81155 7.46541,-5.12081 9.31984,0.60912c1.85166,5.52072 -12.76116,16.07204 -16.68979,11.72967c-1.4908,-1.96819 -0.78206,-3.75622 -0.37608,-4.70322c0.2023,-0.52582 0.19539,-1.04886 0.08386,-1.57052c-0.43503,-1.24977 -1.30235,-3.54009 -2.26735,-5.30598c-2.36087,-4.46774 -3.31619,-5.50136 -4.91298,-7.57278c-1.59678,-2.07142 -5.53095,-6.83223 -2.23466,-10.74701c2.78016,-3.38482 5.94332,-1.54338 7.22214,0.21836z" data-paper-data="{&quot;index&quot;:null}" fill="#ff1919" stroke="#001026" stroke-width="1.2" stroke-linecap="round" stroke-linejoin="round"/><g><path d="M222.84116,203.6514c0.9046,0.0934 2.8476,0.34184 2.03718,4.65663c-0.81042,4.31478 -6.8955,7.65466 -7.6346,7.96081c-2.82262,1.28626 -6.33334,2.74052 -10.79291,2.94938c-12.92639,0.67329 -18.43935,-12.37421 -15.70519,-15.96444c2.64177,-3.55197 7.564,3.88862 14.67284,6.67845c3.12763,1.27913 6.13788,0.96843 8.56206,0.54941c3.38944,-0.70183 7.82223,-6.98526 8.86061,-6.83023z" fill="#ff1919" stroke="#001026" stroke-width="1.2" stroke-linecap="round" stroke-linejoin="round"/><path d="M196.57746,205.05116c2.59542,2.08474 7.0318,4.69424 7.0318,4.69424c0,0 -3.79073,0.51696 -5.02743,3.01879c-1.03266,1.94917 0.2472,3.99371 0.72163,4.61641c-1.73895,-0.80108 -3.96197,-1.9868 -6.33408,-5.10029c-2.37212,-3.1135 -3.18613,-7.69163 -1.58666,-9.05638c1.68223,-1.16497 2.76484,0.14206 5.19474,1.82723z" fill="#ffffff" stroke="none" stroke-width="1" stroke-linecap="butt" stroke-linejoin="miter"/></g><path d="M231.79821,211.31884c-1.25601,1.88271 -5.47504,8.62519 -12.09992,14.21611l-0.34613,0.25741c-0.34612,0.25741 -0.33826,0.82075 0.01574,1.12666c2.60688,1.63447 7.53087,5.02404 2.90234,8.87733c-4.43538,3.77287 -19.66626,-5.86482 -17.09744,-11.12709c1.27218,-2.11609 3.19553,-2.12353 4.22561,-2.09907c0.56333,-0.00786 1.04625,-0.2089 1.48895,-0.50652c0.99817,-0.86882 2.80133,-2.52603 4.08138,-4.0788c3.26851,-3.85373 3.87248,-5.12504 5.20103,-7.37792c1.32855,-2.25289 4.28371,-7.67597 9.14391,-6.07297c4.17623,1.32112 3.64396,4.94233 2.48453,6.78484z" fill="#ff1919" stroke="#001026" stroke-width="1.2" stroke-linecap="round" stroke-linejoin="round"/><g><path d="M228.95646,209.76578c-11.07624,-4.29615 -6.10452,-10.22422 -5.50595,-15.69887c0.68947,-4.75233 2.01524,-4.44846 8.00458,-5.70059c3.32328,-0.87509 5.28047,-1.38443 7.26454,-2.34018c2.99574,-1.38764 4.32854,3.26248 4.48238,5.91509c0,0 0.16514,3.95256 -0.28447,6.2104c-0.56847,2.74351 -1.08317,4.59421 -1.83344,5.89309c0,0 -1.87823,2.76975 -4.70957,4.58082c-2.06061,1.31807 -7.41806,1.14024 -7.41806,1.14024z" fill="#ff1919" stroke="#001026" stroke-width="1.2" stroke-linecap="round" stroke-linejoin="round"/><path d="M240.2171,204.30611c0,0 -1.8507,-0.51469 -3.91116,-1.26603c-2.54612,-0.8702 -4.97446,-1.46449 -4.35221,-5.10081c0.71315,-2.91401 1.02022,-6.52451 6.29748,-5.62421c5.01479,0.79488 4.24893,3.84012 4.24893,3.84012c-0.25651,5.00242 -2.28305,8.15093 -2.28305,8.15093z" fill="#ffffff" stroke="none" stroke-width="1" stroke-linecap="butt" stroke-linejoin="miter"/></g><g><path d="M251.91447,131.59283c0.32185,-0.17366 0.8067,-0.01289 0.85847,0.41405l1.31035,11.41229c0,0 5.7994,5.61096 7.29453,9.25555c2.525,6.07811 2.08908,10.76466 2.08908,10.76466c0,0 6.80412,2.98938 7.31832,9.04777c0.5142,6.05839 -5.14191,16.77833 -24.26,18.48387c-19.11809,1.70554 -33.51344,-5.31063 -39.21132,-17.96204c-5.69788,-12.65142 7.04714,-25.50685 6.35587,-24.74395l0.04283,-18.8357c-0.05177,-0.42694 0.48066,-0.68175 0.85428,-0.42846l11.08176,9.58391c0,0 4.67301,-1.25431 9.36629,-0.92747c2.80562,0.11071 5.16625,0.5915 7.40374,1.2687z" fill="#ff1919" stroke="#001026" stroke-width="1.2" stroke-linecap="butt" stroke-linejoin="miter"/><path d="M263.12127,163.82083c0,0 6.64111,2.65494 7.1553,8.71334c0.5142,6.05839 -5.47984,16.21336 -24.38733,17.83776c-24.63768,2.4419 -34.35016,-13.8268 -26.43277,-24.07733c7.92928,-10.35442 18.27219,0.40795 26.68905,0.7401c7.21274,0.29953 8.75693,-6.15472 16.97576,-3.21388z" fill="#ffffff" stroke="none" stroke-width="1" stroke-linecap="butt" stroke-linejoin="miter"/><path d="M230.55295,171.35426c0.04758,-0.41557 0.48066,-0.68175 0.86618,-0.53236c1.8044,0.94338 6.97903,3.21992 12.89251,4.31798c5.32926,0.92593 8.54418,0.97825 10.07013,0.8372c0.50865,-0.04702 0.84658,0.51794 0.5884,1.01467c-1.21533,2.70273 -5.88279,10.06245 -16.24326,8.24472c-8.92198,-2.07406 -9.05486,-8.82558 -8.17395,-13.8822z" fill="#ffffff" stroke="#001026" stroke-width="1.2" stroke-linecap="round" stroke-linejoin="round"/><path d="M281.27099,167.05666c-5.1215,3.4133 -12.28667,2.69821 -12.28667,2.69821" fill="none" stroke="#001026" stroke-width="1.2" stroke-linecap="round" stroke-linejoin="round"/><path d="M278.64719,178.54478c-6.31859,-0.19716 -9.96727,-2.61475 -9.96727,-2.61475" fill="none" stroke="#001026" stroke-width="1.2" stroke-linecap="round" stroke-linejoin="round"/><path d="M246.05737,164.288c2.08637,0.23888 4.2483,0.69692 4.26438,1.43554c-0.06718,1.46588 -1.89051,4.20426 -3.49201,4.12614c-1.81211,0.00304 -5.68748,-3.07204 -5.49715,-4.73432c0.04339,-1.25809 2.73776,-1.05486 4.72478,-0.82735z" fill="#001026" stroke="#001026" stroke-width="1.2" stroke-linecap="round" stroke-linejoin="round"/><path d="M201.52787,157.61086c0,0 8.21112,3.88726 11.31965,7.50606" fill="none" stroke="#001026" stroke-width="1.2" stroke-linecap="round" stroke-linejoin="round"/><path d="M212.72926,168.78729c-4.47431,1.27706 -11.69543,-0.70752 -11.69543,-0.70752" fill="none" stroke="#001026" stroke-width="1.2" stroke-linecap="round" stroke-linejoin="round"/><path d="M259.1725,153.47478c2.3459,5.00507 1.83861,10.31497 -1.15733,11.86655c-2.99594,1.55157 -7.31628,-1.15343 -9.76153,-6.16986c-2.3459,-5.00507 -1.83861,-10.31497 1.15733,-11.86654c3.00783,-1.65546 7.41564,1.1648 9.76153,6.16985z" fill="#ffffff" stroke="#001026" stroke-width="1.2" stroke-linecap="round" stroke-linejoin="round"/><path d="M258.09708,159.35119c-0.13085,1.14283 -1.03271,1.98686 -2.02622,1.87311c-0.99351,-0.11375 -1.68127,-1.13978 -1.55041,-2.28261c0.13085,-1.14283 1.03271,-1.98686 2.02622,-1.87311c0.99351,0.11375 1.68127,1.13978 1.55041,2.28261" fill="#001026" stroke="none" stroke-width="1" stroke-linecap="butt" stroke-linejoin="miter"/><path d="M234.2004,153.56279c2.45714,4.91253 1.61612,10.50001 -1.29237,12.16684c-3.50459,1.59859 -7.7095,-0.35642 -10.16664,-5.26895c-2.5565,-4.92391 -2.07719,-10.86855 1.26438,-12.80158c3.35347,-2.03692 7.73747,0.99114 10.19463,5.90368z" fill="#ffffff" stroke="#001026" stroke-width="1.2" stroke-linecap="round" stroke-linejoin="round"/><path d="M232.91439,159.52032c-0.13085,1.14283 -1.03271,1.98686 -2.02622,1.87311c-0.99351,-0.11375 -1.68127,-1.13978 -1.55041,-2.28261c0.13085,-1.14283 1.03271,-1.98687 2.02622,-1.87312c0.98161,0.21764 1.68126,1.13979 1.55042,2.28262" fill="#001026" stroke="none" stroke-width="1" stroke-linecap="butt" stroke-linejoin="miter"/></g><path d="M212.67356,193.23458c-0.58306,-0.00706 -1.15166,0.209 -1.43227,0.72014c-1.30933,3.31144 -2.61835,8.01213 -7.29046,5.76015c-5.82407,-3.43223 0.34269,-12.70482 2.86146,-15.33271c2.22371,-2.3399 5.2616,-1.10249 7.83878,-0.05933c4.84484,2.15116 9.07773,3.84899 9.79849,8.05976c0.96571,5.22564 -4.30358,4.1327 -7.11834,2.88084c-1.70613,-0.74103 -3.49863,-1.43166 -4.65766,-2.02884z" data-paper-data="{&quot;index&quot;:null}" fill="#ff1919" stroke="#001026" stroke-width="1.2" stroke-linecap="round" stroke-linejoin="round"/><path d="M243.8752,194.20248c1.95008,-1.71964 5.36412,-1.93034 7.35785,-2.08854c1.99374,-0.1582 10.12278,0.13974 12.36133,7.36531c0.79301,3.1672 1.09032,11.97126 -3.76583,11.45376c-4.85615,-0.51751 -3.96362,-5.70437 -3.97591,-8.89338c0.02727,-2.69059 -9.40753,-2.50372 -10.03824,-2.61418c-2.24943,-0.28295 -3.97315,-3.29605 -1.9392,-5.22297z" data-paper-data="{&quot;index&quot;:null}" fill="#ff1919" stroke="#001026" stroke-width="1.2" stroke-linecap="round" stroke-linejoin="round"/></g></g></svg>