<svg version="1.1" xmlns="http://www.w3.org/2000/svg" xmlns:xlink="http://www.w3.org/1999/xlink" width="81.10489" height="111.60027" viewBox="0,0,81.10489,111.60027"><g transform="translate(-195.76463,-127.78602)"><g data-paper-data="{&quot;isPaintingLayer&quot;:true}" fill-rule="evenodd" stroke-miterlimit="10" stroke-dasharray="" stroke-dashoffset="0" style="mix-blend-mode: normal"><path d="M239.67777,209.03331c-0.12222,2.25992 -0.31978,10.21116 -3.1743,18.39646l-0.1668,0.39779c-0.1668,0.39779 0.12684,0.87861 0.58728,0.96162c3.07587,0.07917 9.03969,0.4889 7.01844,6.16214c-1.89596,5.50567 -19.91193,4.96719 -20.38082,-0.8698c0.0173,-2.469 1.66881,-3.45483 2.56778,-3.95831c0.48082,-0.29364 0.79406,-0.71257 1.02351,-1.19415c0.41663,-1.25602 1.12458,-3.60051 1.43551,-5.5887c0.85056,-4.98106 0.72295,-6.38274 0.71912,-8.99818c-0.00383,-2.61543 -0.22213,-8.78757 4.77699,-9.88293c4.26695,-0.98967 5.65289,2.39791 5.59331,4.57405z" data-paper-data="{&quot;index&quot;:null}" fill="#ff1919" stroke="#001026" stroke-width="1.2" stroke-linecap="round" stroke-linejoin="round"/><g><path d="M224.02267,207.44966c0.409,0.81225 1.24722,2.58266 -2.82378,4.22617c-4.07099,1.64351 -10.16443,-1.68109 -10.82073,-2.13855c-2.60501,-1.68392 -5.72247,-3.85681 -8.30252,-7.50026c-7.53565,-10.5242 0.48151,-22.20132 4.97934,-21.83398c4.4158,0.31016 0.80256,8.46708 2.2852,15.95844c0.60875,3.3238 2.49326,5.69167 4.15304,7.50753c2.41835,2.47638 10.10023,2.8225 10.52945,3.78064z" fill="#ff1919" stroke="#001026" stroke-width="1.2" stroke-linecap="round" stroke-linejoin="round"/><path d="M208.68506,186.08383c-0.35668,3.30985 -0.16288,8.45314 -0.16288,8.45314c0,0 -2.47898,-2.91403 -5.25283,-2.6069c-2.19838,0.18104 -3.23041,2.3612 -3.49911,3.09648c-0.26276,-1.89648 -0.46251,-4.40802 0.88101,-8.08439c1.34352,-3.67638 4.7606,-6.83003 6.77232,-6.21862c1.88807,0.78882 1.37087,2.40525 1.26149,5.36029z" fill="#ffffff" stroke="none" stroke-width="1" stroke-linecap="butt" stroke-linejoin="miter"/></g><path d="M232.25093,209.82153c-0.92898,2.06377 -3.98064,9.40875 -9.59488,16.01388l-0.29904,0.31087c-0.29903,0.31087 -0.19855,0.86523 0.20098,1.1087c2.84036,1.18308 8.25512,3.71591 4.32398,8.27851c-3.75386,4.45148 -20.36338,-2.54772 -18.69577,-8.16104c0.90651,-2.29663 2.8024,-2.62056 3.82246,-2.76598c0.55435,-0.10048 0.99759,-0.37826 1.38527,-0.7447c0.84155,-1.02127 2.34733,-2.95268 3.35433,-4.69497c2.5896,-4.33917 2.97607,-5.69255 3.91567,-8.13339c0.9396,-2.44084 2.9618,-8.27638 8.01956,-7.49524c4.33673,0.61568 4.40777,4.27511 3.56744,6.28334z" fill="#ff1919" stroke="#001026" stroke-width="1.2" stroke-linecap="round" stroke-linejoin="round"/><g><path d="M228.95646,209.76578c-11.07624,-4.29615 -6.10452,-10.22422 -5.50595,-15.69887c0.68947,-4.75233 2.01524,-4.44846 8.00458,-5.70059c3.32328,-0.87509 5.28047,-1.38443 7.26454,-2.34018c2.99574,-1.38764 4.32854,3.26248 4.48238,5.91509c0,0 0.16514,3.95256 -0.28447,6.2104c-0.56847,2.74351 -1.08317,4.59421 -1.83344,5.89309c0,0 -1.87823,2.76975 -4.70957,4.58082c-2.06061,1.31807 -7.41806,1.14024 -7.41806,1.14024z" fill="#ff1919" stroke="#001026" stroke-width="1.2" stroke-linecap="round" stroke-linejoin="round"/><path d="M240.2171,204.30611c0,0 -1.8507,-0.51469 -3.91116,-1.26603c-2.54612,-0.8702 -4.97446,-1.46449 -4.35221,-5.10081c0.71315,-2.91401 1.02022,-6.52451 6.29748,-5.62421c5.01479,0.79488 4.24893,3.84012 4.24893,3.84012c-0.25651,5.00242 -2.28305,8.15093 -2.28305,8.15093z" fill="#ffffff" stroke="none" stroke-width="1" stroke-linecap="butt" stroke-linejoin="miter"/></g><g><path d="M238.60877,128.22564c0.26796,-0.24888 0.77765,-0.21494 0.93491,0.18535l4.13258,10.71817c0,0 7.02198,3.97589 9.38395,7.1286c3.96962,5.24987 4.72385,9.89583 4.72385,9.89583c0,0 7.3366,1.18606 9.35483,6.9215c2.01823,5.73544 -0.76645,17.5318 -18.84461,23.98086c-18.07816,6.44906 -33.77364,3.27027 -42.46431,-7.54621c-8.69067,-10.81649 0.42009,-26.45912 -0.05759,-25.54715l-4.68577,-18.2436c-0.15726,-0.40028 0.29418,-0.78056 0.71941,-0.62915l13.13237,6.49596c0,0 4.20865,-2.38696 8.83375,-3.24846c2.74361,-0.59697 5.14935,-0.72402 7.48519,-0.63004z" fill="#ff1919" stroke="#001026" stroke-width="1.2" stroke-linecap="butt" stroke-linejoin="miter"/><path d="M257.54522,156.60957c0,0 7.09487,0.90324 9.11309,6.63868c2.01823,5.73544 -1.23535,17.06973 -19.13002,23.38739c-23.23629,8.54711 -36.7209,-4.76334 -31.62951,-16.67283c5.07683,-12.01305 17.78976,-4.19091 26.02059,-5.98179c7.05707,-1.52025 6.932,-8.15548 15.62585,-7.37146z" fill="#ffffff" stroke="none" stroke-width="1" stroke-linecap="butt" stroke-linejoin="miter"/><path d="M227.90995,172.07562c-0.05824,-0.41421 0.29418,-0.78056 0.70485,-0.73271c1.98341,0.46033 7.56377,1.36532 13.56357,0.94412c5.39108,-0.4412 8.51623,-1.19741 9.95794,-1.71692c0.48057,-0.17317 0.94947,0.2889 0.82422,0.83452c-0.49812,2.92124 -3.16911,11.21681 -13.65419,12.05745c-9.15696,0.23149 -10.98003,-6.27059 -11.39638,-11.38646z" fill="#ffffff" stroke="#001026" stroke-width="1.2" stroke-linecap="round" stroke-linejoin="round"/><path d="M275.92615,155.18676c-4.10094,4.58941 -11.21625,5.69546 -11.21625,5.69546" fill="none" stroke="#001026" stroke-width="1.2" stroke-linecap="round" stroke-linejoin="round"/><path d="M276.26952,166.9657c-6.16584,1.39494 -10.30449,-0.02956 -10.30449,-0.02956" fill="none" stroke="#001026" stroke-width="1.2" stroke-linecap="round" stroke-linejoin="round"/><path d="M241.14471,161.34435c2.07955,-0.29239 4.28724,-0.39159 4.48818,0.31935c0.30286,1.43582 -0.77485,4.54416 -2.3447,4.87048c-1.75335,0.45773 -6.27644,-1.54632 -6.50939,-3.20316c-0.27374,-1.22871 2.3854,-1.7082 4.36592,-1.98666z" fill="#001026" stroke="#001026" stroke-width="1.2" stroke-linecap="round" stroke-linejoin="round"/><path d="M196.36463,166.05657c0,0 8.92391,1.70208 12.84117,4.42491" fill="none" stroke="#001026" stroke-width="1.2" stroke-linecap="round" stroke-linejoin="round"/><path d="M210.01248,174.06406c-4.0106,2.35911 -11.49868,2.25035 -11.49868,2.25035" fill="none" stroke="#001026" stroke-width="1.2" stroke-linecap="round" stroke-linejoin="round"/><path d="M251.12626,147.58568c3.52695,4.25612 4.36853,9.52339 1.85788,11.77721c-2.51065,2.25381 -7.3716,0.71967 -10.99757,-3.52252c-3.52695,-4.25612 -4.36853,-9.52339 -1.85788,-11.7772c2.49609,-2.35736 7.47063,-0.7336 10.99757,3.52251z" fill="#ffffff" stroke="#001026" stroke-width="1.2" stroke-linecap="round" stroke-linejoin="round"/><path d="M251.56007,153.54391c0.16016,1.13909 -0.50101,2.18245 -1.49127,2.32168c-0.99026,0.13923 -1.91351,-0.68135 -2.07366,-1.82044c-0.16016,-1.13909 0.50101,-2.18245 1.49127,-2.32168c0.99026,-0.13923 1.91351,0.68135 2.07366,1.82044" fill="#001026" stroke="none" stroke-width="1" stroke-linecap="butt" stroke-linejoin="miter"/><path d="M226.9755,153.93817c3.61141,4.13863 4.1996,9.75835 1.80253,12.10178c-2.99122,2.42698 -7.5522,1.58986 -11.16361,-2.54877c-3.71044,-4.12471 -4.73841,-9.99938 -1.98892,-12.70918c2.73493,-2.81335 7.73858,-0.98247 11.35,3.15616z" fill="#ffffff" stroke="#001026" stroke-width="1.2" stroke-linecap="round" stroke-linejoin="round"/><path d="M227.22582,160.02778c0.16016,1.13909 -0.50101,2.18245 -1.49127,2.32168c-0.99026,0.13923 -1.91351,-0.68135 -2.07366,-1.82044c-0.16016,-1.13909 0.50101,-2.18246 1.49127,-2.32169c1.00482,-0.03568 1.91351,0.68136 2.07367,1.82045" fill="#001026" stroke="none" stroke-width="1" stroke-linecap="butt" stroke-linejoin="miter"/></g><path d="M216.2035,185.7707c1.18,0.55461 2.82028,1.55436 4.44785,2.45492c2.70839,1.46787 6.78731,4.9782 2.05645,7.39872c-3.77707,1.99593 -7.70357,-0.32411 -12.3625,-2.85282c-2.39812,-1.40679 -5.2311,-3.06033 -4.73215,-6.24954c0.54733,-3.59867 4.13743,-14.14007 10.40881,-11.61622c4.63353,2.33032 1.70564,6.23384 -0.12088,9.29061c-0.23406,0.53406 -0.05866,1.11649 0.30242,1.57434z" data-paper-data="{&quot;index&quot;:null}" fill="#ff1919" stroke="#001026" stroke-width="1.2" stroke-linecap="round" stroke-linejoin="round"/><path d="M245.6144,188.41607c0.63071,-0.11046 10.06551,0.07641 10.03824,-2.61418c0.01229,-3.18901 -0.88024,-8.37587 3.97591,-8.89338c4.85615,-0.5175 4.55884,8.28656 3.76583,11.45376c-2.23855,7.22557 -10.36759,7.52351 -12.36133,7.36531c-1.99373,-0.1582 -5.40777,-0.3689 -7.35785,-2.08854c-2.03395,-1.92692 -0.31023,-4.94002 1.9392,-5.22297z" data-paper-data="{&quot;index&quot;:null}" fill="#ff1919" stroke="#001026" stroke-width="1.2" stroke-linecap="round" stroke-linejoin="round"/></g></g></svg>