<svg version="1.1" xmlns="http://www.w3.org/2000/svg" xmlns:xlink="http://www.w3.org/1999/xlink" width="84.1137" height="109.36699" viewBox="0,0,84.1137,109.36699"><g transform="translate(-196.84532,-127.36303)"><g data-paper-data="{&quot;isPaintingLayer&quot;:true}" fill-rule="evenodd" stroke-miterlimit="10" stroke-dasharray="" stroke-dashoffset="0" style="mix-blend-mode: normal"><path d="M243.28003,190.89842c0.25219,0.58856 2.23446,9.81465 4.84705,9.17095c3.1068,-0.71954 7.95064,-2.77803 9.56824,1.82993c1.61761,4.60796 -7.0199,6.33806 -10.28456,6.29269c-7.54639,-0.52146 -9.70103,-8.36542 -10.00437,-10.34228c-0.30335,-1.97686 -0.88138,-5.34819 0.34511,-7.64074c1.40898,-2.42172 4.73714,-1.43511 5.52853,0.68945z" data-paper-data="{&quot;index&quot;:null}" fill="#ff1919" stroke="#001026" stroke-width="1.2" stroke-linecap="round" stroke-linejoin="round"/><path d="M236.9029,204.61045c0.88363,2.0836 4.20137,9.31228 5.23552,17.91913l0.02504,0.43061c0.02504,0.43061 0.50015,0.73341 0.9502,0.60557c2.79756,-1.28098 8.3344,-3.53453 9.01273,2.44971c0.71722,5.77864 -15.70151,13.21441 -18.68847,8.17772c-1.06978,-2.22527 -0.01973,-3.83671 0.5664,-4.68411c0.3028,-0.4751 0.39999,-0.98907 0.39439,-1.5225c-0.1779,-1.31131 -0.5726,-3.72835 -1.16728,-5.65082c-1.4256,-4.84789 -2.15636,-6.05079 -3.3095,-8.39831c-1.15313,-2.3475 -4.06234,-7.79537 -0.05361,-10.97675c3.39756,-2.76459 6.13151,-0.33108 7.03458,1.64972z" data-paper-data="{&quot;index&quot;:null}" fill="#ff1919" stroke="#001026" stroke-width="1.2" stroke-linecap="round" stroke-linejoin="round"/><g><path d="M225.11284,205.92151c0.5559,0.71973 1.71528,2.29859 -1.96921,4.68577c-3.68449,2.38718 -10.29867,0.28111 -11.02995,-0.04329c-2.87754,-1.1582 -6.35111,-2.69908 -9.57652,-5.78584c-9.39827,-8.90041 -3.74624,-21.88826 0.73944,-22.38235c4.39427,-0.53464 2.39696,8.16028 5.27618,15.23338c1.22929,3.14755 3.52943,5.11415 5.50404,6.58151c2.84488,1.97169 10.45255,0.8517 11.05602,1.71081z" fill="#ff1919" stroke="#001026" stroke-width="1.2" stroke-linecap="round" stroke-linejoin="round"/><path d="M205.99451,187.85966c0.2788,3.31732 1.44646,8.33006 1.44646,8.33006c0,0 -2.98757,-2.38984 -5.65251,-1.56119c-2.12392,0.59551 -2.72284,2.93206 -2.84692,3.705c-0.61837,-1.81199 -1.29175,-4.2398 -0.67134,-8.1045c0.62041,-3.8647 3.37592,-7.61024 5.46717,-7.39226c2.00357,0.41565 1.80297,2.10091 2.25713,5.02289z" fill="#ffffff" stroke="none" stroke-width="1" stroke-linecap="butt" stroke-linejoin="miter"/></g><path d="M228.87543,207.88771c-0.64786,2.16852 -2.70124,9.85258 -7.39255,17.14224l-0.25529,0.3477c-0.25528,0.3477 -0.08236,0.88388 0.34585,1.07237c2.97189,0.79701 8.67407,2.59142 5.38092,7.63389c-3.13211,4.90888 -20.52145,0.16796 -19.61092,-5.6166c0.59479,-2.39635 2.43118,-2.96819 3.42305,-3.24724c0.53619,-0.17292 0.93879,-0.50689 1.27461,-0.92137c0.69907,-1.1236 1.93618,-3.2372 2.70388,-5.09737c1.99294,-4.64355 2.19702,-6.03616 2.80553,-8.57983c0.60851,-2.54367 1.84113,-8.5954 6.95777,-8.49008c4.38006,0.03668 4.93448,3.65458 4.36715,5.75631z" fill="#ff1919" stroke="#001026" stroke-width="1.2" stroke-linecap="round" stroke-linejoin="round"/><g><path d="M228.95647,209.52353c-11.07624,-4.29615 -6.10452,-10.22422 -5.50595,-15.69887c0.68947,-4.75233 2.01524,-4.44846 8.00458,-5.70059c3.32328,-0.87509 5.28047,-1.38443 7.26454,-2.34018c2.99574,-1.38764 4.32854,3.26248 4.48238,5.91509c0,0 0.16514,3.95256 -0.28447,6.2104c-0.56847,2.74351 -1.08317,4.59421 -1.83344,5.89309c0,0 -1.87823,2.76975 -4.70957,4.58082c-2.06061,1.31807 -7.41806,1.14024 -7.41806,1.14024z" fill="#ff1919" stroke="#001026" stroke-width="1.2" stroke-linecap="round" stroke-linejoin="round"/><path d="M240.21711,204.06386c0,0 -1.8507,-0.51469 -3.91116,-1.26603c-2.54612,-0.8702 -4.97446,-1.46449 -4.35221,-5.10081c0.71315,-2.91401 1.02022,-6.52451 6.29748,-5.62421c5.01479,0.79488 4.24893,3.84012 4.24893,3.84012c-0.25651,5.00242 -2.28305,8.15093 -2.28305,8.15093z" fill="#ffffff" stroke="none" stroke-width="1" stroke-linecap="butt" stroke-linejoin="miter"/></g><path d="M222.74534,200.54559c2.57466,2.45991 6.43642,5.44265 2.59088,8.92285c-5.37269,4.10295 -11.64062,-5.10157 -13.12661,-8.4245c-1.33031,-2.94114 0.95997,-5.28947 2.89679,-7.28413c3.81719,-3.67818 6.98398,-6.96018 11.1562,-6.04228c5.20465,1.07313 2.20795,5.54301 -0.01167,7.67918c-1.32894,1.3015 -2.64371,2.702 -3.63339,3.55084c-0.2261,0.53747 -0.24005,1.14559 0.1278,1.59802z" fill="#ff1919" stroke="#001026" stroke-width="1.2" stroke-linecap="round" stroke-linejoin="round"/><path d="M247.15903,127.85522c0.3,-0.20915 0.8,-0.10457 0.9,0.31372l2.6,11.18917c0,0 6.4,4.91486 8.3,8.36573c3.2,5.75144 3.3,10.45716 3.3,10.45716c0,0 7.1,2.19601 8.3,8.15659c1.2,5.96058 -3.2,17.25432 -22,21.12347c-18.8,3.86915 -33.9,-1.46401 -41,-13.38517c-7.1,-11.92117 4.1,-26.14291 3.5,-25.30633l-2.1,-18.71832c-0.1,-0.41828 0.4,-0.732 0.8,-0.52286l12.1,8.26116c0,0 4.5,-1.77772 9.2,-1.98686c2.8,-0.20915 5.2,0 7.5,0.41829z" fill="#ff1919" stroke="#001026" stroke-width="1.2" stroke-linecap="butt" stroke-linejoin="miter"/><path d="M261.95903,158.59926c0,0 6.9,1.88229 8.1,7.84287c1.2,5.96058 -3.6,16.73146 -22.2,20.49604c-24.2,5.22858 -35.7,-9.82973 -29,-20.91432c6.7,-11.18917 18.2,-1.67315 26.6,-2.30058c7.2,-0.52286 8,-7.11087 16.5,-5.12401z" fill="#ffffff" stroke="none" stroke-width="1" stroke-linecap="butt" stroke-linejoin="miter"/><path d="M230.45903,169.78844c0,-0.41828 0.4,-0.732 0.8,-0.62743c1.9,0.732 7.3,2.40515 13.3,2.82343c5.4,0.31372 8.6,0 10.1,-0.31372c0.5,-0.10457 0.9,0.41828 0.7,0.94115c-0.9,2.82343 -4.7,10.66631 -15.2,10.03888c-9.1,-1.04572 -10,-7.7383 -9.7,-12.86231z" fill="#ffffff" stroke="#001026" stroke-width="1.2" stroke-linecap="round" stroke-linejoin="round"/><path d="M280.35902,159.74956c-4.7,3.97372 -11.9,4.0783 -11.9,4.0783" fill="none" stroke="#001026" stroke-width="1.2" stroke-linecap="round" stroke-linejoin="round"/><path d="M279.05903,171.46158c-6.3,0.52286 -10.2,-1.464 -10.2,-1.464" fill="none" stroke="#001026" stroke-width="1.2" stroke-linecap="round" stroke-linejoin="round"/><path d="M245.05903,161.00442c2.1,0 4.3,0.20915 4.4,0.94115c0.1,1.464 -1.4,4.39201 -3,4.49658c-1.8,0.20915 -6,-2.40515 -6,-4.07829c-0.1,-1.25486 2.6,-1.35943 4.6,-1.35943z" fill="#001026" stroke="#001026" stroke-width="1.2" stroke-linecap="round" stroke-linejoin="round"/><path d="M200.05903,159.43584c0,0 8.6,2.92801 12.1,6.16973" fill="none" stroke="#001026" stroke-width="1.2" stroke-linecap="round" stroke-linejoin="round"/><path d="M212.45903,169.26558c-4.3,1.77772 -11.7,0.62743 -11.7,0.62743" fill="none" stroke="#001026" stroke-width="1.2" stroke-linecap="round" stroke-linejoin="round"/><path d="M256.85902,148.76954c2.9,4.70573 3,10.03887 0.2,11.92117c-2.8,1.88229 -7.4,-0.31372 -10.4,-5.01944c-2.9,-4.70573 -3,-10.03887 -0.2,-11.92116c2.8,-1.98686 7.5,0.31371 10.4,5.01943z" fill="#ffffff" stroke="#001026" stroke-width="1.2" stroke-linecap="round" stroke-linejoin="round"/><path d="M256.45903,154.73013c0,1.15029 -0.8,2.09143 -1.8,2.09143c-1,0 -1.8,-0.94114 -1.8,-2.09143c0,-1.15029 0.8,-2.09143 1.8,-2.09143c1,0 1.8,0.94114 1.8,2.09143" fill="#001026" stroke="none" stroke-width="1" stroke-linecap="butt" stroke-linejoin="miter"/><path d="M232.05903,151.69755c3,4.60115 2.8,10.24802 0.1,12.23488c-3.3,1.98686 -7.7,0.52285 -10.7,-4.07829c-3.1,-4.60115 -3.3,-10.56173 -0.2,-12.86231c3.1,-2.40515 7.8,0.10457 10.8,4.70572z" fill="#ffffff" stroke="#001026" stroke-width="1.2" stroke-linecap="round" stroke-linejoin="round"/><path d="M231.45903,157.7627c0,1.15029 -0.8,2.09143 -1.8,2.09143c-1,0 -1.8,-0.94114 -1.8,-2.09143c0,-1.15029 0.8,-2.09144 1.8,-2.09144c1,0.10457 1.8,0.94115 1.8,2.09144" fill="#001026" stroke="none" stroke-width="1" stroke-linecap="butt" stroke-linejoin="miter"/></g></g></svg>