<svg version="1.1" xmlns="http://www.w3.org/2000/svg" xmlns:xlink="http://www.w3.org/1999/xlink" width="84.1137" height="112.9748" viewBox="0,0,84.1137,112.9748"><g transform="translate(-196.84532,-125.66722)"><g data-paper-data="{&quot;isPaintingLayer&quot;:true}" fill-rule="evenodd" stroke-miterlimit="10" stroke-dasharray="" stroke-dashoffset="0" style="mix-blend-mode: normal"><path d="M236.21677,208.25135c-0.10688,2.2607 -0.25046,10.2131 -3.04934,18.41759l-0.1641,0.39891c-0.16409,0.39891 0.13281,0.87773 0.59379,0.95761c3.07633,0.05829 9.04281,0.42752 7.06011,6.11436c-1.85854,5.51842 -19.87775,5.10225 -20.38625,-0.73141c0.00054,-2.46906 1.64532,-3.46608 2.54085,-3.97565c0.47882,-0.29689 0.78919,-0.71794 1.01537,-1.20107c0.40809,-1.25882 1.10012,-3.60808 1.39755,-5.59832c0.81672,-4.98672 0.6796,-6.3875 0.658,-9.00286c-0.02159,-2.61534 -0.28179,-8.78585 4.70979,-9.91513c4.26014,-1.01862 5.66903,2.35947 5.62423,4.53596z" data-paper-data="{&quot;index&quot;:null}" fill="#ff1919" stroke="#001026" stroke-width="1.2" stroke-linecap="round" stroke-linejoin="round"/><g><path d="M225.11284,204.2257c0.5559,0.71973 1.71528,2.29859 -1.96921,4.68577c-3.68449,2.38718 -10.29867,0.28111 -11.02995,-0.04329c-2.87754,-1.1582 -6.35111,-2.69908 -9.57652,-5.78584c-9.39827,-8.90041 -3.74624,-21.88826 0.73944,-22.38235c4.39427,-0.53464 2.39696,8.16028 5.27618,15.23338c1.22929,3.14755 3.52943,5.11415 5.50404,6.58151c2.84488,1.97169 10.45255,0.8517 11.05602,1.71081z" fill="#ff1919" stroke="#001026" stroke-width="1.2" stroke-linecap="round" stroke-linejoin="round"/><path d="M205.99451,186.16385c0.2788,3.31732 1.44646,8.33006 1.44646,8.33006c0,0 -2.98757,-2.38984 -5.65251,-1.56119c-2.12392,0.59551 -2.72284,2.93206 -2.84692,3.705c-0.61837,-1.81199 -1.29175,-4.2398 -0.67134,-8.1045c0.62041,-3.8647 3.37592,-7.61024 5.46717,-7.39226c2.00357,0.41565 1.80297,2.10091 2.25713,5.02289z" fill="#ffffff" stroke="none" stroke-width="1" stroke-linecap="butt" stroke-linejoin="miter"/></g><path d="M232.34087,201.65946c-0.03664,2.26293 0.06678,10.21595 -2.476,18.50339l-0.15164,0.40382c-0.15162,0.40382 0.15999,0.87318 0.62324,0.93871c3.07668,-0.03726 9.05171,0.14653 7.24655,5.8922c-1.6863,5.57347 -19.70975,5.71698 -20.39913,-0.09807c-0.07613,-2.46789 1.53689,-3.51549 2.41619,-4.05264c0.46936,-0.31162 0.76652,-0.7421 0.9776,-1.23202c0.3688,-1.27089 0.98756,-3.64047 1.22303,-5.639c0.66148,-5.00967 0.48095,-6.40553 0.37816,-9.01895c-0.1028,-2.61342 -0.55445,-8.77287 4.39966,-10.05659c4.22645,-1.1504 5.73956,2.18232 5.76236,4.35916z" fill="#ff1919" stroke="#001026" stroke-width="1.2" stroke-linecap="round" stroke-linejoin="round"/><g><path d="M228.95647,207.82772c-11.07624,-4.29615 -6.10452,-10.22422 -5.50595,-15.69887c0.68947,-4.75233 2.01524,-4.44846 8.00458,-5.70059c3.32328,-0.87509 5.28047,-1.38443 7.26454,-2.34018c2.99574,-1.38764 4.32854,3.26248 4.48238,5.91509c0,0 0.16514,3.95256 -0.28447,6.2104c-0.56847,2.74351 -1.08317,4.59421 -1.83344,5.89309c0,0 -1.87823,2.76975 -4.70957,4.58082c-2.06061,1.31807 -7.41806,1.14024 -7.41806,1.14024z" fill="#ff1919" stroke="#001026" stroke-width="1.2" stroke-linecap="round" stroke-linejoin="round"/><path d="M240.21711,202.36805c0,0 -1.8507,-0.51469 -3.91116,-1.26603c-2.54612,-0.8702 -4.97446,-1.46449 -4.35221,-5.10081c0.71315,-2.91401 1.02022,-6.52451 6.29748,-5.62421c5.01479,0.79488 4.24893,3.84012 4.24893,3.84012c-0.25651,5.00242 -2.28305,8.15093 -2.28305,8.15093z" fill="#ffffff" stroke="none" stroke-width="1" stroke-linecap="butt" stroke-linejoin="miter"/></g><path d="M237.00522,200.27802c3.54409,0.34563 8.42349,0.30795 7.54687,5.41984c-1.69352,6.54461 -12.30692,3.17328 -15.52738,1.47663c-2.86229,-1.49243 -2.51037,-4.75374 -2.21817,-7.51862c0.73209,-5.25014 1.19712,-9.78708 5.04598,-11.64079c4.75688,-2.36899 5.15902,2.99742 4.73171,6.04821c-0.24194,1.8443 -0.41161,3.75774 -0.66612,5.03649c0.15395,0.5624 0.51841,1.04941 1.0871,1.17822z" fill="#ff1919" stroke="#001026" stroke-width="1.2" stroke-linecap="round" stroke-linejoin="round"/><path d="M247.15903,126.15941c0.3,-0.20915 0.8,-0.10457 0.9,0.31372l2.6,11.18917c0,0 6.4,4.91486 8.3,8.36573c3.2,5.75144 3.3,10.45716 3.3,10.45716c0,0 7.1,2.19601 8.3,8.15659c1.2,5.96058 -3.2,17.25432 -22,21.12347c-18.8,3.86915 -33.9,-1.46401 -41,-13.38517c-7.1,-11.92117 4.1,-26.14291 3.5,-25.30633l-2.1,-18.71832c-0.1,-0.41828 0.4,-0.732 0.8,-0.52286l12.1,8.26116c0,0 4.5,-1.77772 9.2,-1.98686c2.8,-0.20915 5.2,0 7.5,0.41829z" fill="#ff1919" stroke="#001026" stroke-width="1.2" stroke-linecap="butt" stroke-linejoin="miter"/><path d="M261.95903,156.90345c0,0 6.9,1.88229 8.1,7.84287c1.2,5.96058 -3.6,16.73146 -22.2,20.49604c-24.2,5.22858 -35.7,-9.82973 -29,-20.91432c6.7,-11.18917 18.2,-1.67315 26.6,-2.30058c7.2,-0.52286 8,-7.11087 16.5,-5.12401z" fill="#ffffff" stroke="none" stroke-width="1" stroke-linecap="butt" stroke-linejoin="miter"/><path d="M230.45903,168.09263c0,-0.41828 0.4,-0.732 0.8,-0.62743c1.9,0.732 7.3,2.40515 13.3,2.82343c5.4,0.31372 8.6,0 10.1,-0.31372c0.5,-0.10457 0.9,0.41828 0.7,0.94115c-0.9,2.82343 -4.7,10.66631 -15.2,10.03888c-9.1,-1.04572 -10,-7.7383 -9.7,-12.86231z" fill="#ffffff" stroke="#001026" stroke-width="1.2" stroke-linecap="round" stroke-linejoin="round"/><path d="M280.35902,158.05375c-4.7,3.97372 -11.9,4.0783 -11.9,4.0783" fill="none" stroke="#001026" stroke-width="1.2" stroke-linecap="round" stroke-linejoin="round"/><path d="M279.05903,169.76577c-6.3,0.52286 -10.2,-1.464 -10.2,-1.464" fill="none" stroke="#001026" stroke-width="1.2" stroke-linecap="round" stroke-linejoin="round"/><path d="M245.05903,159.30861c2.1,0 4.3,0.20915 4.4,0.94115c0.1,1.464 -1.4,4.39201 -3,4.49658c-1.8,0.20915 -6,-2.40515 -6,-4.07829c-0.1,-1.25486 2.6,-1.35943 4.6,-1.35943z" fill="#001026" stroke="#001026" stroke-width="1.2" stroke-linecap="round" stroke-linejoin="round"/><path d="M200.05903,157.74003c0,0 8.6,2.92801 12.1,6.16973" fill="none" stroke="#001026" stroke-width="1.2" stroke-linecap="round" stroke-linejoin="round"/><path d="M212.45903,167.56977c-4.3,1.77772 -11.7,0.62743 -11.7,0.62743" fill="none" stroke="#001026" stroke-width="1.2" stroke-linecap="round" stroke-linejoin="round"/><path d="M256.85902,147.07373c2.9,4.70573 3,10.03887 0.2,11.92117c-2.8,1.88229 -7.4,-0.31372 -10.4,-5.01944c-2.9,-4.70573 -3,-10.03887 -0.2,-11.92116c2.8,-1.98686 7.5,0.31371 10.4,5.01943z" fill="#ffffff" stroke="#001026" stroke-width="1.2" stroke-linecap="round" stroke-linejoin="round"/><path d="M256.45903,153.03432c0,1.15029 -0.8,2.09143 -1.8,2.09143c-1,0 -1.8,-0.94114 -1.8,-2.09143c0,-1.15029 0.8,-2.09143 1.8,-2.09143c1,0 1.8,0.94114 1.8,2.09143" fill="#001026" stroke="none" stroke-width="1" stroke-linecap="butt" stroke-linejoin="miter"/><path d="M232.05903,150.00174c3,4.60115 2.8,10.24802 0.1,12.23488c-3.3,1.98686 -7.7,0.52285 -10.7,-4.07829c-3.1,-4.60115 -3.3,-10.56173 -0.2,-12.86231c3.1,-2.40515 7.8,0.10457 10.8,4.70572z" fill="#ffffff" stroke="#001026" stroke-width="1.2" stroke-linecap="round" stroke-linejoin="round"/><path d="M231.45903,156.06689c0,1.15029 -0.8,2.09143 -1.8,2.09143c-1,0 -1.8,-0.94114 -1.8,-2.09143c0,-1.15029 0.8,-2.09144 1.8,-2.09144c1,0.10457 1.8,0.94115 1.8,2.09144" fill="#001026" stroke="none" stroke-width="1" stroke-linecap="butt" stroke-linejoin="miter"/></g></g></svg>