<svg version="1.1" xmlns="http://www.w3.org/2000/svg" xmlns:xlink="http://www.w3.org/1999/xlink" width="84.11371" height="106.28847" viewBox="0,0,84.11371,106.28847"><g transform="translate(-196.84531,-130.27013)"><g data-paper-data="{&quot;isPaintingLayer&quot;:true}" fill-rule="evenodd" stroke-miterlimit="10" stroke-dasharray="" stroke-dashoffset="0" style="mix-blend-mode: normal"><path d="M243.46909,192.20061c0.48573,0.41722 6.33056,7.82587 8.3922,6.09682c2.47187,-2.0149 5.91305,-5.99716 9.3956,-2.57344c3.48255,3.42371 -3.50886,8.78282 -6.45948,10.18063c-7.00405,2.85713 -12.39459,-3.23485 -13.53798,-4.87578c-1.14339,-1.64093 -3.14782,-4.41262 -3.05701,-7.01104c0.19772,-2.79479 3.62009,-3.37564 5.26667,-1.81718z" data-paper-data="{&quot;index&quot;:null}" fill="#ff1919" stroke="#001026" stroke-width="1.2" stroke-linecap="round" stroke-linejoin="round"/><path d="M238.97052,206.20172c1.52403,1.67317 7.04931,7.39441 10.87656,15.17255l0.16629,0.398c0.16629,0.398 0.71488,0.52629 1.09717,0.25657c2.21517,-2.13548 6.69269,-6.09615 9.31533,-0.67462c2.59121,5.21466 -10.43672,17.67011 -14.92368,13.90748c-1.74661,-1.74517 -1.28975,-3.61349 -1.01747,-4.60722c0.12829,-0.54859 0.04971,-1.06574 -0.13229,-1.56718c-0.6023,-1.17831 -1.77549,-3.32807 -2.97351,-4.94494c-2.95122,-4.10179 -4.03924,-4.99465 -5.905,-6.82754c-1.86575,-1.83289 -6.41558,-6.00924 -3.68725,-10.33906c2.28975,-3.73409 5.67554,-2.34379 7.18386,-0.77405z" data-paper-data="{&quot;index&quot;:null}" fill="#ff1919" stroke="#001026" stroke-width="1.2" stroke-linecap="round" stroke-linejoin="round"/><g><path d="M225.11284,208.82861c0.5559,0.71973 1.71528,2.29859 -1.96921,4.68577c-3.68449,2.38718 -10.29867,0.28111 -11.02995,-0.04329c-2.87754,-1.1582 -6.35111,-2.69908 -9.57652,-5.78584c-9.39827,-8.90041 -3.74624,-21.88826 0.73944,-22.38235c4.39427,-0.53464 2.39696,8.16028 5.27618,15.23338c1.22929,3.14755 3.52943,5.11415 5.50404,6.58151c2.84488,1.97169 10.45255,0.8517 11.05602,1.71081z" fill="#ff1919" stroke="#001026" stroke-width="1.2" stroke-linecap="round" stroke-linejoin="round"/><path d="M205.99451,190.76676c0.2788,3.31732 1.44646,8.33006 1.44646,8.33006c0,0 -2.98757,-2.38984 -5.65251,-1.56119c-2.12392,0.59551 -2.72284,2.93206 -2.84692,3.705c-0.61837,-1.81199 -1.29175,-4.2398 -0.67134,-8.1045c0.62041,-3.8647 3.37592,-7.61024 5.46717,-7.39226c2.00357,0.41565 1.80297,2.10091 2.25713,5.02289z" fill="#ffffff" stroke="none" stroke-width="1" stroke-linecap="butt" stroke-linejoin="miter"/></g><path d="M230.46425,215.07316c-1.89279,1.24078 -8.41455,5.79356 -16.69937,8.34488l-0.41927,0.10137c-0.41927,0.10138 -0.63255,0.62283 -0.42656,1.0429c1.759,2.52453 4.96313,7.57115 -0.80445,9.30502c-5.55835,1.73548 -15.80089,-13.09542 -11.37708,-16.93211c1.99902,-1.4492 3.77179,-0.70313 4.71009,-0.27737c0.52145,0.21329 1.04452,0.21734 1.56841,0.11678c1.25862,-0.40873 3.56662,-1.22781 5.35236,-2.15557c4.51626,-2.26667 5.5697,-3.20008 7.67415,-4.7531c2.10445,-1.55301 6.94671,-5.38645 10.79151,-2.00879c3.32577,2.85053 1.4184,5.97438 -0.36978,7.21597z" fill="#ff1919" stroke="#001026" stroke-width="1.2" stroke-linecap="round" stroke-linejoin="round"/><g><path d="M228.95647,212.43063c-11.07624,-4.29615 -6.10452,-10.22422 -5.50595,-15.69887c0.68947,-4.75233 2.01524,-4.44846 8.00458,-5.70059c3.32328,-0.87509 5.28047,-1.38443 7.26454,-2.34018c2.99574,-1.38764 4.32854,3.26248 4.48238,5.91509c0,0 0.16514,3.95256 -0.28447,6.2104c-0.56847,2.74351 -1.08317,4.59421 -1.83344,5.89309c0,0 -1.87823,2.76975 -4.70957,4.58082c-2.06061,1.31807 -7.41806,1.14024 -7.41806,1.14024z" fill="#ff1919" stroke="#001026" stroke-width="1.2" stroke-linecap="round" stroke-linejoin="round"/><path d="M240.21711,206.97096c0,0 -1.8507,-0.51469 -3.91116,-1.26603c-2.54612,-0.8702 -4.97446,-1.46449 -4.35221,-5.10081c0.71315,-2.91401 1.02022,-6.52451 6.29748,-5.62421c5.01479,0.79488 4.24893,3.84012 4.24893,3.84012c-0.25651,5.00242 -2.28305,8.15093 -2.28305,8.15093z" fill="#ffffff" stroke="none" stroke-width="1" stroke-linecap="butt" stroke-linejoin="miter"/></g><path d="M219.89828,199.95106c0.12427,3.55873 0.80443,8.39064 -4.37841,8.19509c-6.71068,-0.81659 -4.76691,-11.78162 -3.5093,-15.19753c1.10235,-3.03395 4.3816,-3.11474 7.16088,-3.18932c5.30083,0.03407 9.85949,-0.10264 12.20409,3.46847c2.975,4.40334 -2.29166,5.50893 -5.37216,5.48724c-1.8601,0.00314 -3.77921,0.08701 -5.08035,0.00319c-0.53722,0.2267 -0.97196,0.65214 -1.02474,1.23284z" fill="#ff1919" stroke="#001026" stroke-width="1.2" stroke-linecap="round" stroke-linejoin="round"/><path d="M247.15903,130.76232c0.3,-0.20915 0.8,-0.10457 0.9,0.31372l2.6,11.18917c0,0 6.4,4.91486 8.3,8.36573c3.2,5.75144 3.3,10.45716 3.3,10.45716c0,0 7.1,2.19601 8.3,8.15659c1.2,5.96058 -3.2,17.25432 -22,21.12347c-18.8,3.86915 -33.9,-1.46401 -41,-13.38517c-7.1,-11.92117 4.1,-26.14291 3.5,-25.30633l-2.1,-18.71832c-0.1,-0.41828 0.4,-0.732 0.8,-0.52286l12.1,8.26116c0,0 4.5,-1.77772 9.2,-1.98686c2.8,-0.20915 5.2,0 7.5,0.41829z" fill="#ff1919" stroke="#001026" stroke-width="1.2" stroke-linecap="butt" stroke-linejoin="miter"/><path d="M261.95903,161.50637c0,0 6.9,1.88229 8.1,7.84287c1.2,5.96058 -3.6,16.73146 -22.2,20.49604c-24.2,5.22858 -35.7,-9.82973 -29,-20.91432c6.7,-11.18917 18.2,-1.67315 26.6,-2.30058c7.2,-0.52286 8,-7.11087 16.5,-5.12401z" fill="#ffffff" stroke="none" stroke-width="1" stroke-linecap="butt" stroke-linejoin="miter"/><path d="M230.45903,172.69554c0,-0.41828 0.4,-0.732 0.8,-0.62743c1.9,0.732 7.3,2.40515 13.3,2.82343c5.4,0.31372 8.6,0 10.1,-0.31372c0.5,-0.10457 0.9,0.41828 0.7,0.94115c-0.9,2.82343 -4.7,10.66631 -15.2,10.03888c-9.1,-1.04572 -10,-7.7383 -9.7,-12.86231z" fill="#ffffff" stroke="#001026" stroke-width="1.2" stroke-linecap="round" stroke-linejoin="round"/><path d="M280.35902,162.65666c-4.7,3.97372 -11.9,4.0783 -11.9,4.0783" fill="none" stroke="#001026" stroke-width="1.2" stroke-linecap="round" stroke-linejoin="round"/><path d="M279.05903,174.36868c-6.3,0.52286 -10.2,-1.464 -10.2,-1.464" fill="none" stroke="#001026" stroke-width="1.2" stroke-linecap="round" stroke-linejoin="round"/><path d="M245.05903,163.91152c2.1,0 4.3,0.20915 4.4,0.94115c0.1,1.464 -1.4,4.39201 -3,4.49658c-1.8,0.20915 -6,-2.40515 -6,-4.07829c-0.1,-1.25486 2.6,-1.35943 4.6,-1.35943z" fill="#001026" stroke="#001026" stroke-width="1.2" stroke-linecap="round" stroke-linejoin="round"/><path d="M200.05903,162.34295c0,0 8.6,2.92801 12.1,6.16973" fill="none" stroke="#001026" stroke-width="1.2" stroke-linecap="round" stroke-linejoin="round"/><path d="M212.45903,172.17268c-4.3,1.77772 -11.7,0.62743 -11.7,0.62743" fill="none" stroke="#001026" stroke-width="1.2" stroke-linecap="round" stroke-linejoin="round"/><path d="M256.85902,151.67664c2.9,4.70573 3,10.03887 0.2,11.92117c-2.8,1.88229 -7.4,-0.31372 -10.4,-5.01944c-2.9,-4.70573 -3,-10.03887 -0.2,-11.92116c2.8,-1.98686 7.5,0.31371 10.4,5.01943z" fill="#ffffff" stroke="#001026" stroke-width="1.2" stroke-linecap="round" stroke-linejoin="round"/><path d="M256.45903,157.63723c0,1.15029 -0.8,2.09143 -1.8,2.09143c-1,0 -1.8,-0.94114 -1.8,-2.09143c0,-1.15029 0.8,-2.09143 1.8,-2.09143c1,0 1.8,0.94114 1.8,2.09143" fill="#001026" stroke="none" stroke-width="1" stroke-linecap="butt" stroke-linejoin="miter"/><path d="M232.05903,154.60465c3,4.60115 2.8,10.24802 0.1,12.23488c-3.3,1.98686 -7.7,0.52285 -10.7,-4.07829c-3.1,-4.60115 -3.3,-10.56173 -0.2,-12.86231c3.1,-2.40515 7.8,0.10457 10.8,4.70572z" fill="#ffffff" stroke="#001026" stroke-width="1.2" stroke-linecap="round" stroke-linejoin="round"/><path d="M231.45903,160.6698c0,1.15029 -0.8,2.09143 -1.8,2.09143c-1,0 -1.8,-0.94114 -1.8,-2.09143c0,-1.15029 0.8,-2.09144 1.8,-2.09144c1,0.10457 1.8,0.94115 1.8,2.09144" fill="#001026" stroke="none" stroke-width="1" stroke-linecap="butt" stroke-linejoin="miter"/></g></g></svg>