<svg version="1.1" xmlns="http://www.w3.org/2000/svg" xmlns:xlink="http://www.w3.org/1999/xlink" width="84.11371" height="109.68915" viewBox="0,0,84.11371,109.68915"><g transform="translate(-196.84531,-127.60528)"><g data-paper-data="{&quot;isPaintingLayer&quot;:true}" fill-rule="evenodd" stroke-miterlimit="10" stroke-dasharray="" stroke-dashoffset="0" style="mix-blend-mode: normal"><path d="M240.51339,205.88437c0.37234,2.23238 1.90928,10.03617 0.90382,18.64642l-0.07627,0.42455c-0.07627,0.42455 0.31494,0.82997 0.78241,0.81083c3.01943,-0.59187 8.92955,-1.48937 8.1909,4.48772c-0.65281,5.78627 -18.35444,9.18 -20.08192,3.58482c-0.52024,-2.41363 0.87725,-3.73513 1.64516,-4.42212c0.40542,-0.39121 0.62002,-0.86825 0.73921,-1.38821c0.13341,-1.31658 0.31437,-3.75893 0.18533,-5.76714c-0.25343,-5.0468 -0.68291,-6.38715 -1.25563,-8.93911c-0.57272,-2.55196 -2.12852,-8.52878 2.51258,-10.68545c3.94946,-1.89423 6.03916,1.11071 6.45442,3.24769z" data-paper-data="{&quot;index&quot;:null}" fill="#ff1919" stroke="#001026" stroke-width="1.2" stroke-linecap="round" stroke-linejoin="round"/><g><path d="M225.11283,206.16376c0.5559,0.71973 1.71528,2.29859 -1.96921,4.68577c-3.68449,2.38718 -10.29867,0.28111 -11.02995,-0.04329c-2.87754,-1.1582 -6.35111,-2.69908 -9.57652,-5.78584c-9.39827,-8.90041 -3.74624,-21.88826 0.73944,-22.38235c4.39427,-0.53464 2.39696,8.16028 5.27618,15.23338c1.22929,3.14755 3.52943,5.11415 5.50404,6.58151c2.84488,1.97169 10.45255,0.8517 11.05602,1.71081z" fill="#ff1919" stroke="#001026" stroke-width="1.2" stroke-linecap="round" stroke-linejoin="round"/><path d="M205.9945,188.10191c0.2788,3.31732 1.44646,8.33006 1.44646,8.33006c0,0 -2.98757,-2.38984 -5.65251,-1.56119c-2.12392,0.59551 -2.72284,2.93206 -2.84692,3.705c-0.61837,-1.81199 -1.29175,-4.2398 -0.67134,-8.1045c0.62041,-3.8647 3.37592,-7.61024 5.46717,-7.39226c2.00357,0.41565 1.80297,2.10091 2.25713,5.02289z" fill="#ffffff" stroke="none" stroke-width="1" stroke-linecap="butt" stroke-linejoin="miter"/></g><path d="M232.96566,206.88904c-0.23477,2.25101 -0.82859,10.18251 -4.08773,18.21528l-0.18644,0.38898c-0.18643,0.38898 0.08286,0.88384 0.53859,0.98971c3.06811,0.23246 9.00406,0.93907 6.70242,6.50447c-2.16816,5.40428 -20.13486,3.96806 -20.31209,-1.88505c0.1404,-2.46507 1.83901,-3.36732 2.76198,-3.82535c0.49486,-0.26929 0.8286,-0.67208 1.08178,-1.14162c0.47875,-1.23369 1.30273,-3.53994 1.71242,-5.51016c1.09788,-4.93245 1.04035,-6.33875 1.16693,-8.95113c0.12659,-2.61238 0.21635,-8.78771 5.26388,-9.63242c4.31099,-0.77566 5.52627,2.67682 5.35825,4.84728z" fill="#ff1919" stroke="#001026" stroke-width="1.2" stroke-linecap="round" stroke-linejoin="round"/><path d="M247.15902,128.09747c0.3,-0.20915 0.8,-0.10457 0.9,0.31372l2.6,11.18917c0,0 6.4,4.91486 8.3,8.36573c3.2,5.75144 3.3,10.45716 3.3,10.45716c0,0 7.1,2.19601 8.3,8.15659c1.2,5.96058 -3.2,17.25432 -22,21.12347c-18.8,3.86915 -33.9,-1.46401 -41,-13.38517c-7.1,-11.92117 4.1,-26.14291 3.5,-25.30633l-2.1,-18.71832c-0.1,-0.41828 0.4,-0.732 0.8,-0.52286l12.1,8.26116c0,0 4.5,-1.77772 9.2,-1.98686c2.8,-0.20915 5.2,0 7.5,0.41829z" fill="#ff1919" stroke="#001026" stroke-width="1.2" stroke-linecap="butt" stroke-linejoin="miter"/><path d="M261.95902,158.84152c0,0 6.9,1.88229 8.1,7.84287c1.2,5.96058 -3.6,16.73146 -22.2,20.49604c-24.2,5.22858 -35.7,-9.82973 -29,-20.91432c6.7,-11.18917 18.2,-1.67315 26.6,-2.30058c7.2,-0.52286 8,-7.11087 16.5,-5.12401z" fill="#ffffff" stroke="none" stroke-width="1" stroke-linecap="butt" stroke-linejoin="miter"/><path d="M242.6296,192.20014c0.5055,-0.0423 7.91144,1.15349 8.11788,-1.52455c0.27977,-3.16937 0.01697,-8.42197 3.88084,-8.41665c3.86386,0.00532 2.88431,8.72696 1.99225,11.79107c-2.37291,6.94441 -8.79276,6.37042 -10.34771,5.9997c-1.55495,-0.37072 -4.22271,-0.94568 -5.61108,-2.8642c-1.43678,-2.13357 0.17436,-4.94484 1.96781,-4.98537z" data-paper-data="{&quot;index&quot;:null}" fill="#ff1919" stroke="#001026" stroke-width="1.2" stroke-linecap="round" stroke-linejoin="round"/><g><path d="M228.95646,209.76578c-11.07624,-4.29615 -6.10452,-10.22422 -5.50595,-15.69887c0.68947,-4.75233 2.01524,-4.44846 8.00458,-5.70059c3.32328,-0.87509 5.28047,-1.38443 7.26454,-2.34018c2.99574,-1.38764 4.32854,3.26248 4.48238,5.91509c0,0 0.16514,3.95256 -0.28447,6.2104c-0.56847,2.74351 -1.08317,4.59421 -1.83344,5.89309c0,0 -1.87823,2.76975 -4.70957,4.58082c-2.06061,1.31807 -7.41806,1.14024 -7.41806,1.14024z" fill="#ff1919" stroke="#001026" stroke-width="1.2" stroke-linecap="round" stroke-linejoin="round"/><path d="M240.2171,204.30611c0,0 -1.8507,-0.51469 -3.91116,-1.26603c-2.54612,-0.8702 -4.97446,-1.46449 -4.35221,-5.10081c0.71315,-2.91401 1.02022,-6.52451 6.29748,-5.62421c5.01479,0.79488 4.24893,3.84012 4.24893,3.84012c-0.25651,5.00242 -2.28305,8.15093 -2.28305,8.15093z" fill="#ffffff" stroke="none" stroke-width="1" stroke-linecap="butt" stroke-linejoin="miter"/></g><path d="M232.40685,191.13848c1.77203,-3.08868 3.74358,-7.55219 8.04318,-4.65159c5.26982,4.23427 -2.16658,12.52342 -5.03715,14.76168c-2.53716,1.99571 -5.36547,0.33419 -7.7658,-1.06882c-4.48504,-2.82568 -8.42969,-5.11471 -8.53728,-9.38535c-0.20401,-5.31022 4.85327,-3.4707 7.45869,-1.82699c1.5818,0.97874 3.25632,1.92001 4.3174,2.6777c0.57597,0.09086 1.16975,-0.04117 1.52096,-0.50662z" fill="#ff1919" stroke="#001026" stroke-width="1.2" stroke-linecap="round" stroke-linejoin="round"/><path d="M230.45902,170.03069c0,-0.41828 0.4,-0.732 0.8,-0.62743c1.9,0.732 7.3,2.40515 13.3,2.82343c5.4,0.31372 8.6,0 10.1,-0.31372c0.5,-0.10457 0.9,0.41828 0.7,0.94115c-0.9,2.82343 -4.7,10.66631 -15.2,10.03888c-9.1,-1.04572 -10,-7.7383 -9.7,-12.86231z" fill="#ffffff" stroke="#001026" stroke-width="1.2" stroke-linecap="round" stroke-linejoin="round"/><path d="M280.35902,159.99181c-4.7,3.97372 -11.9,4.0783 -11.9,4.0783" fill="none" stroke="#001026" stroke-width="1.2" stroke-linecap="round" stroke-linejoin="round"/><path d="M279.05902,171.70383c-6.3,0.52286 -10.2,-1.464 -10.2,-1.464" fill="none" stroke="#001026" stroke-width="1.2" stroke-linecap="round" stroke-linejoin="round"/><path d="M245.05902,161.24667c2.1,0 4.3,0.20915 4.4,0.94115c0.1,1.464 -1.4,4.39201 -3,4.49658c-1.8,0.20915 -6,-2.40515 -6,-4.07829c-0.1,-1.25486 2.6,-1.35943 4.6,-1.35943z" fill="#001026" stroke="#001026" stroke-width="1.2" stroke-linecap="round" stroke-linejoin="round"/><path d="M200.05902,159.6781c0,0 8.6,2.92801 12.1,6.16973" fill="none" stroke="#001026" stroke-width="1.2" stroke-linecap="round" stroke-linejoin="round"/><path d="M212.45902,169.50783c-4.3,1.77772 -11.7,0.62743 -11.7,0.62743" fill="none" stroke="#001026" stroke-width="1.2" stroke-linecap="round" stroke-linejoin="round"/><path d="M256.85902,149.01179c2.9,4.70573 3,10.03887 0.2,11.92117c-2.8,1.88229 -7.4,-0.31372 -10.4,-5.01944c-2.9,-4.70573 -3,-10.03887 -0.2,-11.92116c2.8,-1.98686 7.5,0.31371 10.4,5.01943z" fill="#ffffff" stroke="#001026" stroke-width="1.2" stroke-linecap="round" stroke-linejoin="round"/><path d="M256.03045,156.97238c0,1.15029 -0.8,2.09143 -1.8,2.09143c-1,0 -1.8,-0.94114 -1.8,-2.09143c0,-1.15029 0.8,-2.09143 1.8,-2.09143c1,0 1.8,0.94114 1.8,2.09143" fill="#001026" stroke="none" stroke-width="1" stroke-linecap="butt" stroke-linejoin="miter"/><path d="M232.05902,151.9398c3,4.60115 2.8,10.24802 0.1,12.23488c-3.3,1.98686 -7.7,0.52285 -10.7,-4.07829c-3.1,-4.60115 -3.3,-10.56173 -0.2,-12.86231c3.1,-2.40515 7.8,0.10457 10.8,4.70572z" fill="#ffffff" stroke="#001026" stroke-width="1.2" stroke-linecap="round" stroke-linejoin="round"/><path d="M231.45902,159.71924c0,1.15029 -0.8,2.09143 -1.8,2.09143c-1,0 -1.8,-0.94114 -1.8,-2.09143c0,-1.15029 0.8,-2.09144 1.8,-2.09144c1,0.10457 1.8,0.94115 1.8,2.09144" fill="#001026" stroke="none" stroke-width="1" stroke-linecap="butt" stroke-linejoin="miter"/></g></g></svg>